<svg version="1.1" id="Layer_1" xmlns="http://www.w3.org/2000/svg" xmlns:xlink="http://www.w3.org/1999/xlink" x="0px" y="0px"
	 width="100%" viewBox="0 0 1968 810" enable-background="new 0 0 1968 810" xml:space="preserve">
<path fill="#000000" opacity="1.000000" stroke="none" 
	d="
M1215.000000,811.000000 
	C810.000122,811.000000 405.500275,811.000000 1.000326,811.000000 
	C1.000217,541.000244 1.000217,271.000488 1.000108,1.000362 
	C1.499759,1.000000 1.999517,1.000000 2.499276,1.000000 
	C657.999023,1.000000 1313.498779,1.000000 1968.998901,1.000000 
	C1968.999268,270.999420 1968.999268,540.998840 1968.999634,810.999146 
	C1717.833374,811.000000 1466.666626,811.000000 1215.000000,811.000000 
M1553.496460,287.007751 
	C1520.685059,276.325287 1487.882080,265.616821 1455.059326,254.969589 
	C1433.487061,247.971878 1411.881348,241.077744 1390.299316,234.110107 
	C1357.274048,223.448059 1324.197754,212.938766 1291.251709,202.037003 
	C1259.056274,191.383682 1226.929077,180.514771 1194.897949,169.377823 
	C1166.399536,159.469193 1137.843506,149.655487 1109.735474,138.714203 
	C1080.730957,127.423927 1052.142212,115.040527 1023.586670,102.639984 
	C1016.652893,99.628906 1010.027405,95.315857 1004.212402,90.460869 
	C995.692017,83.347206 988.176941,75.044250 979.957764,67.550568 
	C972.823120,61.045788 965.189758,56.109261 954.700867,60.643723 
	C933.142090,69.963753 911.340088,78.724266 889.827942,88.148209 
	C865.117859,98.973068 840.582825,110.200172 816.027954,121.376060 
	C792.250671,132.198059 768.525879,143.135925 744.812500,154.097519 
	C716.893311,167.003250 689.029846,180.029419 661.107483,192.928223 
	C637.330933,203.911804 613.483215,214.741364 589.708740,225.729462 
	C573.408630,233.263031 557.224426,241.047882 540.909790,248.549438 
	C513.273560,261.256714 485.546021,273.765503 457.914215,286.482361 
	C442.165283,293.730438 426.572845,301.318207 410.834076,308.588776 
	C382.160645,321.834656 353.414856,334.923859 324.729706,348.144501 
	C303.971375,357.711761 283.267700,367.397491 262.529846,377.009308 
	C237.727280,388.505096 212.898911,399.945343 188.112366,411.475555 
	C175.924744,417.144989 163.876129,423.117523 151.630249,428.655853 
	C144.315887,431.963898 136.434906,434.347260 131.913559,441.669006 
	C129.408203,445.726135 125.525101,450.154144 125.627396,454.332611 
	C125.811516,461.852905 134.661041,468.667450 142.429321,467.803711 
	C151.305618,466.816742 160.321869,465.240570 168.741211,462.355835 
	C189.737442,455.161835 210.602036,447.511383 231.208130,439.266113 
	C273.245087,422.445465 315.173492,405.343842 356.963867,387.919678 
	C391.962372,373.327332 426.724884,358.166992 461.548157,343.156738 
	C497.131561,327.818817 532.707703,312.462433 568.199280,296.913818 
	C592.625244,286.212891 616.939514,275.254486 641.234680,264.258575 
	C669.268799,251.570435 697.294250,238.859131 725.198303,225.888672 
	C750.606995,214.078140 775.984497,202.184402 801.126831,189.821182 
	C829.244019,175.995132 857.102356,161.641083 885.025879,147.423599 
	C892.458801,143.639053 899.876526,139.777328 907.023193,135.487732 
	C921.265198,126.939331 935.314331,118.069717 949.510498,109.291122 
	C951.694763,110.810616 954.055908,112.577217 956.535156,114.158653 
	C982.091125,130.459824 1009.931091,142.219254 1037.808960,153.612762 
	C1065.614746,164.976852 1094.020264,174.920609 1122.379639,184.869400 
	C1150.891602,194.871689 1179.658569,204.147964 1208.335693,213.677063 
	C1233.738525,222.118195 1259.151367,230.530151 1284.595825,238.844635 
	C1314.087036,248.481430 1343.641846,257.923828 1373.125000,267.584656 
	C1412.369263,280.443909 1451.665039,293.157043 1490.761719,306.452881 
	C1521.987061,317.071869 1553.062622,328.159912 1583.984131,339.633881 
	C1602.796875,346.614716 1621.510986,354.036469 1639.690430,362.503052 
	C1661.199219,372.520203 1682.055908,383.932739 1703.250000,394.632080 
	C1717.341797,401.746033 1731.977905,406.014984 1748.121582,404.116241 
	C1758.083374,402.944580 1764.219971,399.332153 1764.823242,391.384918 
	C1765.870728,377.584534 1764.895874,371.568542 1751.283203,363.941772 
	C1739.333618,357.246735 1726.810669,351.446259 1714.161621,346.157867 
	C1693.217529,337.401367 1672.005859,329.277557 1650.834961,321.072968 
	C1636.677368,315.586334 1622.478027,310.184601 1608.147705,305.172638 
	C1590.277344,298.922638 1572.253052,293.112488 1553.496460,287.007751 
M1144.959106,671.576599 
	C1131.855957,685.466003 1130.720337,707.601440 1142.288086,722.878418 
	C1149.659912,732.614136 1160.383789,736.728455 1171.491821,739.807190 
	C1193.825928,745.997437 1216.589478,746.923584 1239.646729,745.163818 
	C1258.673950,743.711609 1276.831665,739.405640 1293.454712,730.112915 
	C1320.672119,714.897888 1336.234741,691.381958 1336.741577,660.203125 
	C1337.640747,604.886169 1337.005005,549.544128 1336.974854,494.212585 
	C1336.973633,492.069397 1336.749512,489.897614 1336.362915,487.787994 
	C1333.848267,474.062195 1323.935059,466.101349 1313.153320,459.276093 
	C1291.979126,445.871948 1268.221069,440.553833 1243.582397,439.124084 
	C1225.726440,438.087891 1208.008423,440.188660 1190.797852,445.140625 
	C1168.716675,451.494019 1150.089233,463.178833 1137.052490,482.548828 
	C1126.620728,498.048096 1121.409668,515.262085 1119.783691,533.930359 
	C1118.068115,553.628296 1119.526489,572.841736 1126.175659,591.392334 
	C1134.921387,615.792053 1150.554443,634.205872 1174.907349,644.476685 
	C1201.116333,655.530212 1227.942871,654.901794 1255.079834,648.889526 
	C1258.159668,648.207153 1261.251221,647.576599 1264.337158,646.922058 
	C1264.225098,650.175110 1264.257690,653.440796 1263.974243,656.678833 
	C1263.099365,666.671326 1257.802124,673.746643 1248.923096,677.981140 
	C1232.275269,685.920715 1214.551147,686.173950 1196.719604,684.349182 
	C1180.806519,682.720886 1166.237549,676.517517 1151.901978,669.866150 
	C1149.118774,668.574768 1147.229736,668.726562 1144.959106,671.576599 
M751.974487,444.438629 
	C744.127930,442.946808 736.325378,441.144531 728.425903,440.026794 
	C711.092590,437.574158 693.801208,438.569519 676.841919,442.660583 
	C655.800293,447.736511 637.491638,457.728851 622.569946,473.841644 
	C610.697510,486.661774 602.899292,501.590515 598.082458,518.115540 
	C593.252319,534.685974 591.834778,551.736938 594.144165,568.843262 
	C595.601501,579.638062 597.165100,590.654724 600.682129,600.883911 
	C607.204712,619.854492 618.554932,635.877991 634.712463,648.183960 
	C653.481079,662.478638 674.806702,670.417664 698.181824,671.776978 
	C713.308411,672.656555 728.531738,672.608154 743.604980,669.098206 
	C761.282715,664.981689 777.750549,658.367249 791.618286,646.693665 
	C814.291382,627.608093 825.695068,602.221069 828.670349,573.286621 
	C830.234375,558.076599 830.210327,542.608765 827.025330,527.361206 
	C823.029907,508.234039 815.361694,490.784973 802.438416,476.179108 
	C789.016174,461.009308 772.247620,450.546356 751.974487,444.438629 
M1082.006592,562.500000 
	C1082.004395,507.847412 1082.033081,453.194824 1081.981079,398.542297 
	C1081.965454,382.188141 1074.350464,372.420776 1058.767212,368.807068 
	C1042.514038,365.038025 1026.428589,367.572815 1010.343079,370.380493 
	C1005.920532,371.152435 1004.900940,373.441132 1004.935730,377.576630 
	C1005.102722,397.403503 1005.005798,417.232605 1005.002625,437.060913 
	C1005.002319,438.988434 1005.002625,440.915985 1005.002625,442.906921 
	C996.077881,441.531799 987.962524,439.524963 979.775574,439.170746 
	C960.193054,438.323578 941.012573,441.020905 922.574951,448.032776 
	C905.627502,454.477905 891.046753,464.260101 879.911316,478.732971 
	C868.759521,493.226959 861.675659,509.493805 858.828430,527.629456 
	C856.318115,543.618958 856.153931,559.584717 857.923401,575.663757 
	C860.400391,598.172424 868.928223,618.175842 883.761963,635.015198 
	C897.360168,650.451904 915.012329,660.119751 934.717773,665.872375 
	C955.559387,671.956848 976.786133,673.026306 998.372314,671.169800 
	C1020.089600,669.302002 1040.249634,662.849487 1059.176270,652.357666 
	C1074.337524,643.953247 1082.702881,631.565247 1082.117065,613.483582 
	C1081.577759,596.838684 1082.005127,580.162415 1082.006592,562.500000 
M478.002563,547.500000 
	C478.002045,559.496582 477.880157,571.494751 478.028870,583.489441 
	C478.266022,602.619629 477.913330,621.802124 479.261444,640.859802 
	C480.393127,656.857239 488.058380,663.963745 501.923584,666.718445 
	C517.173340,669.748047 532.715698,668.298584 548.038147,665.735596 
	C556.011047,664.402039 555.998352,664.311035 555.998230,655.988647 
	C555.996948,574.345093 556.017761,492.701447 555.945923,411.057922 
	C555.940674,405.092834 555.536072,399.096436 554.842285,393.170166 
	C553.370728,380.600006 545.359314,371.674164 532.962952,369.106354 
	C527.147400,367.901764 521.099182,366.930695 515.209900,367.169769 
	C505.123962,367.579193 495.085083,369.076782 485.016663,370.012421 
	C478.619659,370.606812 478.051605,371.089600 478.048981,377.547882 
	C478.026245,433.865265 478.016296,490.182617 478.002563,547.500000 
M1462.994385,503.500000 
	C1462.653931,493.032623 1462.511230,482.554138 1461.922363,472.100769 
	C1461.212280,459.496582 1453.013428,449.832214 1440.715454,446.993896 
	C1424.367554,443.220856 1408.064331,445.227448 1391.722046,447.483765 
	C1386.123413,448.256775 1384.881104,450.757599 1384.897705,456.027100 
	C1385.074097,512.002625 1384.974121,567.978943 1385.057373,623.954834 
	C1385.066772,630.253845 1385.498169,636.576721 1386.151978,642.844971 
	C1387.320435,654.048218 1395.593628,663.483704 1406.558228,666.033875 
	C1423.060425,669.872131 1439.522949,667.861389 1456.039795,665.631836 
	C1461.875610,664.844055 1463.108765,662.323364 1463.090576,656.933960 
	C1462.918335,606.123108 1462.991943,555.311462 1462.994385,503.500000 
M1422.572754,426.000946 
	C1424.737793,425.995422 1426.918701,426.159332 1429.065186,425.956818 
	C1442.829346,424.658051 1453.840576,418.582458 1460.725708,406.390167 
	C1473.809937,383.220520 1462.711670,349.617432 1432.285767,345.624359 
	C1415.488281,343.419830 1400.274536,346.336731 1389.718628,360.949738 
	C1380.294067,373.996918 1379.276733,388.412628 1385.648071,403.025726 
	C1392.413574,418.542908 1405.177124,425.311951 1422.572754,426.000946 
z"/>
<path fill="#D66049" opacity="1.000000" stroke="none" 
	d="
M1553.895874,287.060059 
	C1572.253052,293.112488 1590.277344,298.922638 1608.147705,305.172638 
	C1622.478027,310.184601 1636.677368,315.586334 1650.834961,321.072968 
	C1672.005859,329.277557 1693.217529,337.401367 1714.161621,346.157867 
	C1726.810669,351.446259 1739.333618,357.246735 1751.283203,363.941772 
	C1764.895874,371.568542 1765.870728,377.584534 1764.823242,391.384918 
	C1764.219971,399.332153 1758.083374,402.944580 1748.121582,404.116241 
	C1731.977905,406.014984 1717.341797,401.746033 1703.250000,394.632080 
	C1682.055908,383.932739 1661.199219,372.520203 1639.690430,362.503052 
	C1621.510986,354.036469 1602.796875,346.614716 1583.984131,339.633881 
	C1553.062622,328.159912 1521.987061,317.071869 1490.761719,306.452881 
	C1451.665039,293.157043 1412.369263,280.443909 1373.125000,267.584656 
	C1343.641846,257.923828 1314.087036,248.481430 1284.595825,238.844635 
	C1259.151367,230.530151 1233.738525,222.118195 1208.335693,213.677063 
	C1179.658569,204.147964 1150.891602,194.871689 1122.379639,184.869400 
	C1094.020264,174.920609 1065.614746,164.976852 1037.808960,153.612762 
	C1009.931091,142.219254 982.091125,130.459824 956.535156,114.158653 
	C954.055908,112.577217 951.694763,110.810616 949.510498,109.291122 
	C935.314331,118.069717 921.265198,126.939331 907.023193,135.487732 
	C899.876526,139.777328 892.458801,143.639053 885.025879,147.423599 
	C857.102356,161.641083 829.244019,175.995132 801.126831,189.821182 
	C775.984497,202.184402 750.606995,214.078140 725.198303,225.888672 
	C697.294250,238.859131 669.268799,251.570435 641.234680,264.258575 
	C616.939514,275.254486 592.625244,286.212891 568.199280,296.913818 
	C532.707703,312.462433 497.131561,327.818817 461.548157,343.156738 
	C426.724884,358.166992 391.962372,373.327332 356.963867,387.919678 
	C315.173492,405.343842 273.245087,422.445465 231.208130,439.266113 
	C210.602036,447.511383 189.737442,455.161835 168.741211,462.355835 
	C160.321869,465.240570 151.305618,466.816742 142.429321,467.803711 
	C134.661041,468.667450 125.811516,461.852905 125.627396,454.332611 
	C125.525101,450.154144 129.408203,445.726135 131.913559,441.669006 
	C136.434906,434.347260 144.315887,431.963898 151.630249,428.655853 
	C163.876129,423.117523 175.924744,417.144989 188.112366,411.475555 
	C212.898911,399.945343 237.727280,388.505096 262.529846,377.009308 
	C283.267700,367.397491 303.971375,357.711761 324.729706,348.144501 
	C353.414856,334.923859 382.160645,321.834656 410.834076,308.588776 
	C426.572845,301.318207 442.165283,293.730438 457.914215,286.482361 
	C485.546021,273.765503 513.273560,261.256714 540.909790,248.549438 
	C557.224426,241.047882 573.408630,233.263031 589.708740,225.729462 
	C613.483215,214.741364 637.330933,203.911804 661.107483,192.928223 
	C689.029846,180.029419 716.893311,167.003250 744.812500,154.097519 
	C768.525879,143.135925 792.250671,132.198059 816.027954,121.376060 
	C840.582825,110.200172 865.117859,98.973068 889.827942,88.148209 
	C911.340088,78.724266 933.142090,69.963753 954.700867,60.643723 
	C965.189758,56.109261 972.823120,61.045788 979.957764,67.550568 
	C988.176941,75.044250 995.692017,83.347206 1004.212402,90.460869 
	C1010.027405,95.315857 1016.652893,99.628906 1023.586670,102.639984 
	C1052.142212,115.040527 1080.730957,127.423927 1109.735474,138.714203 
	C1137.843506,149.655487 1166.399536,159.469193 1194.897949,169.377823 
	C1226.929077,180.514771 1259.056274,191.383682 1291.251709,202.037003 
	C1324.197754,212.938766 1357.274048,223.448059 1390.299316,234.110107 
	C1411.881348,241.077744 1433.487061,247.971878 1455.059326,254.969589 
	C1487.882080,265.616821 1520.685059,276.325287 1553.895874,287.060059 
z"/>
<path fill="#373535" opacity="1.000000" stroke="none" 
	d="
M1145.199829,671.332275 
	C1147.229736,668.726562 1149.118774,668.574768 1151.901978,669.866150 
	C1166.237549,676.517517 1180.806519,682.720886 1196.719604,684.349182 
	C1214.551147,686.173950 1232.275269,685.920715 1248.923096,677.981140 
	C1257.802124,673.746643 1263.099365,666.671326 1263.974243,656.678833 
	C1264.257690,653.440796 1264.225098,650.175110 1264.337158,646.922058 
	C1261.251221,647.576599 1258.159668,648.207153 1255.079834,648.889526 
	C1227.942871,654.901794 1201.116333,655.530212 1174.907349,644.476685 
	C1150.554443,634.205872 1134.921387,615.792053 1126.175659,591.392334 
	C1119.526489,572.841736 1118.068115,553.628296 1119.783691,533.930359 
	C1121.409668,515.262085 1126.620728,498.048096 1137.052490,482.548828 
	C1150.089233,463.178833 1168.716675,451.494019 1190.797852,445.140625 
	C1208.008423,440.188660 1225.726440,438.087891 1243.582397,439.124084 
	C1268.221069,440.553833 1291.979126,445.871948 1313.153320,459.276093 
	C1323.935059,466.101349 1333.848267,474.062195 1336.362915,487.787994 
	C1336.749512,489.897614 1336.973633,492.069397 1336.974854,494.212585 
	C1337.005005,549.544128 1337.640747,604.886169 1336.741577,660.203125 
	C1336.234741,691.381958 1320.672119,714.897888 1293.454712,730.112915 
	C1276.831665,739.405640 1258.673950,743.711609 1239.646729,745.163818 
	C1216.589478,746.923584 1193.825928,745.997437 1171.491821,739.807190 
	C1160.383789,736.728455 1149.659912,732.614136 1142.288086,722.878418 
	C1130.720337,707.601440 1131.855957,685.466003 1145.199829,671.332275 
M1263.015137,575.462952 
	C1263.010986,553.638245 1262.933594,531.813110 1263.069946,509.989288 
	C1263.094604,506.036377 1261.694214,504.135590 1257.944458,502.728760 
	C1249.398804,499.522461 1240.554321,499.341949 1231.831909,500.186890 
	C1218.360474,501.491913 1207.344849,507.436096 1201.331421,520.329041 
	C1194.171265,535.680908 1194.557617,551.611328 1198.453247,567.623840 
	C1202.146851,582.804993 1212.307373,591.872620 1227.337769,594.313843 
	C1234.298462,595.444397 1241.804688,593.934265 1248.968018,592.935181 
	C1260.373535,591.344360 1263.007568,588.045532 1263.014526,576.946594 
	C1263.014648,576.779968 1263.014771,576.613403 1263.015137,575.462952 
z"/>
<path fill="#E6191D" opacity="1.000000" stroke="none" 
	d="
M752.311279,444.668457 
	C772.247620,450.546356 789.016174,461.009308 802.438416,476.179108 
	C815.361694,490.784973 823.029907,508.234039 827.025330,527.361206 
	C830.210327,542.608765 830.234375,558.076599 828.670349,573.286621 
	C825.695068,602.221069 814.291382,627.608093 791.618286,646.693665 
	C777.750549,658.367249 761.282715,664.981689 743.604980,669.098206 
	C728.531738,672.608154 713.308411,672.656555 698.181824,671.776978 
	C674.806702,670.417664 653.481079,662.478638 634.712463,648.183960 
	C618.554932,635.877991 607.204712,619.854492 600.682129,600.883911 
	C597.165100,590.654724 595.601501,579.638062 594.144165,568.843262 
	C591.834778,551.736938 593.252319,534.685974 598.082458,518.115540 
	C602.899292,501.590515 610.697510,486.661774 622.569946,473.841644 
	C637.491638,457.728851 655.800293,447.736511 676.841919,442.660583 
	C693.801208,438.569519 711.092590,437.574158 728.425903,440.026794 
	C736.325378,441.144531 744.127930,442.946808 752.311279,444.668457 
z"/>
<path fill="#373535" opacity="1.000000" stroke="none" 
	d="
M1082.006592,563.000000 
	C1082.005127,580.162415 1081.577759,596.838684 1082.117065,613.483582 
	C1082.702881,631.565247 1074.337524,643.953247 1059.176270,652.357666 
	C1040.249634,662.849487 1020.089600,669.302002 998.372314,671.169800 
	C976.786133,673.026306 955.559387,671.956848 934.717773,665.872375 
	C915.012329,660.119751 897.360168,650.451904 883.761963,635.015198 
	C868.928223,618.175842 860.400391,598.172424 857.923401,575.663757 
	C856.153931,559.584717 856.318115,543.618958 858.828430,527.629456 
	C861.675659,509.493805 868.759521,493.226959 879.911316,478.732971 
	C891.046753,464.260101 905.627502,454.477905 922.574951,448.032776 
	C941.012573,441.020905 960.193054,438.323578 979.775574,439.170746 
	C987.962524,439.524963 996.077881,441.531799 1005.002625,442.906921 
	C1005.002625,440.915985 1005.002319,438.988434 1005.002625,437.060913 
	C1005.005798,417.232605 1005.102722,397.403503 1004.935730,377.576630 
	C1004.900940,373.441132 1005.920532,371.152435 1010.343079,370.380493 
	C1026.428589,367.572815 1042.514038,365.038025 1058.767212,368.807068 
	C1074.350464,372.420776 1081.965454,382.188141 1081.981079,398.542297 
	C1082.033081,453.194824 1082.004395,507.847412 1082.006592,563.000000 
M1005.118469,559.029663 
	C1005.109863,555.544312 1005.093445,552.058960 1005.094116,548.573608 
	C1005.096619,536.076050 1004.922241,523.574402 1005.199646,511.082855 
	C1005.312866,505.981812 1003.932434,502.664246 998.512878,502.078552 
	C991.620178,501.333710 984.719421,500.141937 977.817505,500.109009 
	C960.754028,500.027588 944.425537,512.221130 938.720703,528.395752 
	C933.583740,542.960205 934.002197,557.882690 936.140137,572.743103 
	C941.342834,608.905640 976.068115,617.335388 999.619202,606.716003 
	C1003.485413,604.972656 1005.416931,602.400024 1005.323364,597.894226 
	C1005.060730,585.245361 1005.151733,572.589233 1005.118469,559.029663 
z"/>
<path fill="#373535" opacity="1.000000" stroke="none" 
	d="
M478.002563,547.000000 
	C478.016296,490.182617 478.026245,433.865265 478.048981,377.547882 
	C478.051605,371.089600 478.619659,370.606812 485.016663,370.012421 
	C495.085083,369.076782 505.123962,367.579193 515.209900,367.169769 
	C521.099182,366.930695 527.147400,367.901764 532.962952,369.106354 
	C545.359314,371.674164 553.370728,380.600006 554.842285,393.170166 
	C555.536072,399.096436 555.940674,405.092834 555.945923,411.057922 
	C556.017761,492.701447 555.996948,574.345093 555.998230,655.988647 
	C555.998352,664.311035 556.011047,664.402039 548.038147,665.735596 
	C532.715698,668.298584 517.173340,669.748047 501.923584,666.718445 
	C488.058380,663.963745 480.393127,656.857239 479.261444,640.859802 
	C477.913330,621.802124 478.266022,602.619629 478.028870,583.489441 
	C477.880157,571.494751 478.002045,559.496582 478.002563,547.000000 
z"/>
<path fill="#373535" opacity="1.000000" stroke="none" 
	d="
M1462.994629,504.000000 
	C1462.991943,555.311462 1462.918335,606.123108 1463.090576,656.933960 
	C1463.108765,662.323364 1461.875610,664.844055 1456.039795,665.631836 
	C1439.522949,667.861389 1423.060425,669.872131 1406.558228,666.033875 
	C1395.593628,663.483704 1387.320435,654.048218 1386.151978,642.844971 
	C1385.498169,636.576721 1385.066772,630.253845 1385.057373,623.954834 
	C1384.974121,567.978943 1385.074097,512.002625 1384.897705,456.027100 
	C1384.881104,450.757599 1386.123413,448.256775 1391.722046,447.483765 
	C1408.064331,445.227448 1424.367554,443.220856 1440.715454,446.993896 
	C1453.013428,449.832214 1461.212280,459.496582 1461.922363,472.100769 
	C1462.511230,482.554138 1462.653931,493.032623 1462.994629,504.000000 
z"/>
<path fill="#373535" opacity="1.000000" stroke="none" 
	d="
M1422.097656,426.000427 
	C1405.177124,425.311951 1392.413574,418.542908 1385.648071,403.025726 
	C1379.276733,388.412628 1380.294067,373.996918 1389.718628,360.949738 
	C1400.274536,346.336731 1415.488281,343.419830 1432.285767,345.624359 
	C1462.711670,349.617432 1473.809937,383.220520 1460.725708,406.390167 
	C1453.840576,418.582458 1442.829346,424.658051 1429.065186,425.956818 
	C1426.918701,426.159332 1424.737793,425.995422 1422.097656,426.000427 
z"/>
<path fill="#000000" opacity="1.000000" stroke="none" 
	d="
M1263.015015,575.954834 
	C1263.014771,576.613403 1263.014648,576.779968 1263.014526,576.946594 
	C1263.007568,588.045532 1260.373535,591.344360 1248.968018,592.935181 
	C1241.804688,593.934265 1234.298462,595.444397 1227.337769,594.313843 
	C1212.307373,591.872620 1202.146851,582.804993 1198.453247,567.623840 
	C1194.557617,551.611328 1194.171265,535.680908 1201.331421,520.329041 
	C1207.344849,507.436096 1218.360474,501.491913 1231.831909,500.186890 
	C1240.554321,499.341949 1249.398804,499.522461 1257.944458,502.728760 
	C1261.694214,504.135590 1263.094604,506.036377 1263.069946,509.989288 
	C1262.933594,531.813110 1263.010986,553.638245 1263.015015,575.954834 
z"/>
<path fill="#000000" opacity="1.000000" stroke="none" 
	d="
M1005.110840,559.482788 
	C1005.151733,572.589233 1005.060730,585.245361 1005.323364,597.894226 
	C1005.416931,602.400024 1003.485413,604.972656 999.619202,606.716003 
	C976.068115,617.335388 941.342834,608.905640 936.140137,572.743103 
	C934.002197,557.882690 933.583740,542.960205 938.720703,528.395752 
	C944.425537,512.221130 960.754028,500.027588 977.817505,500.109009 
	C984.719421,500.141937 991.620178,501.333710 998.512878,502.078552 
	C1003.932434,502.664246 1005.312866,505.981812 1005.199646,511.082855 
	C1004.922241,523.574402 1005.096619,536.076050 1005.094116,548.573608 
	C1005.093445,552.058960 1005.109863,555.544312 1005.110840,559.482788 
z"/>
</svg>